<?xml version="1.0" standalone="no"?>
<!DOCTYPE svg PUBLIC "-//W3C//DTD SVG 20010904//EN"
 "http://www.w3.org/TR/2001/REC-SVG-20010904/DTD/svg10.dtd">
<svg version="1.0" xmlns="http://www.w3.org/2000/svg"
 width="507.000000pt" height="507.000000pt" viewBox="0 0 507.000000 507.000000"
 preserveAspectRatio="xMidYMid meet">
<metadata>
Created by potrace 1.14, written by Peter Selinger 2001-2017
</metadata>
<g transform="translate(0.000000,507.000000) scale(0.100000,-0.100000)"
fill="#000000" stroke="none">
<path d="M2461 4995 c-1 -6 -32 -11 -73 -11 -107 -1 -198 -6 -238 -15 -19 -4
-52 -10 -73 -13 -42 -7 -155 -32 -202 -45 -136 -40 -182 -53 -195 -58 -8 -4
-17 -7 -20 -8 -86 -22 -337 -141 -455 -215 -16 -11 -43 -27 -59 -36 -28 -16
-165 -112 -176 -124 -3 -3 -25 -21 -50 -40 -64 -49 -122 -102 -217 -200 -115
-118 -125 -129 -164 -180 -18 -25 -39 -50 -45 -57 -10 -11 -69 -98 -150 -225
-48 -74 -184 -352 -189 -388 -1 -8 -12 -40 -23 -70 -12 -30 -30 -93 -42 -140
-11 -47 -25 -101 -30 -120 -5 -19 -12 -51 -14 -70 -3 -19 -11 -60 -17 -90 -13
-55 -17 -539 -7 -645 20 -187 122 -544 204 -707 18 -38 30 -68 26 -68 -4 0 -2
-4 3 -8 6 -4 23 -32 39 -62 28 -53 192 -310 205 -320 3 -3 32 -37 63 -76 83
-104 240 -260 354 -349 54 -44 100 -83 102 -87 2 -4 10 -8 17 -8 8 0 18 -6 22
-12 8 -13 37 -33 63 -45 8 -3 29 -16 45 -28 17 -12 37 -25 45 -28 8 -4 33 -18
55 -30 85 -49 175 -96 175 -90 0 3 6 1 13 -5 19 -16 171 -77 278 -111 171 -56
371 -96 534 -107 105 -8 495 -8 565 0 136 14 249 32 283 45 13 5 38 12 55 14
40 6 256 74 299 93 17 8 34 14 39 14 18 0 261 121 314 157 19 12 38 23 43 23
4 0 13 5 20 10 7 6 50 36 97 67 47 30 99 67 117 82 17 14 50 42 74 61 135 111
229 205 344 345 22 26 46 54 53 61 6 7 12 17 12 22 0 6 4 12 9 14 10 4 147
214 181 278 83 157 170 360 153 360 -3 0 1 7 8 16 12 15 17 29 23 64 1 9 4 20
8 25 5 9 15 47 18 67 1 4 6 22 11 40 9 30 14 54 24 113 2 11 4 20 5 20 3 0 10
40 13 70 1 17 5 35 8 40 12 20 16 579 5 645 -7 38 -14 74 -21 105 -2 11 -6 31
-8 45 -11 65 -38 181 -48 207 -6 15 -13 39 -15 52 -3 14 -8 29 -12 35 -3 6 -7
16 -8 21 -3 16 -62 172 -73 192 -5 10 -28 57 -51 106 -24 48 -46 87 -51 87 -5
0 -8 4 -7 9 3 10 -148 252 -176 283 -10 11 -35 41 -54 66 -97 128 -272 296
-437 421 -44 33 -84 64 -90 69 -5 4 -44 27 -85 52 -41 24 -77 47 -80 51 -13
17 -327 161 -421 194 -120 40 -279 85 -279 79 0 -3 -8 -1 -17 4 -36 19 -274
53 -390 56 -66 1 -125 6 -131 10 -7 4 -12 3 -12 -1 0 -10 -58 -9 -67 1 -3 3
-14 1 -24 -4 -12 -7 -19 -6 -22 3 -3 6 -6 7 -6 2z"/>
</g>
</svg>
